<svg width="12" height="12" viewBox="0 0 12 12" fill="none" xmlns="http://www.w3.org/2000/svg">
<path id="Vector" d="M6.22 11.0971L10.8549 6.46216C10.9393 6.374 11.0055 6.27004 11.0496 6.15625C11.1423 5.93057 11.1423 5.67743 11.0496 5.45174C11.0055 5.33795 10.9393 5.234 10.8549 5.14584L6.22 0.5109C6.13357 0.424469 6.03096 0.355909 5.91803 0.309133C5.8051 0.262357 5.68407 0.238281 5.56184 0.238281C5.31498 0.238281 5.07823 0.336345 4.90368 0.5109C4.72912 0.685455 4.63106 0.922203 4.63106 1.16906C4.63106 1.41592 4.72912 1.65267 4.90368 1.82722L7.96274 4.87701L0.9269 4.87701C0.681047 4.87701 0.445264 4.97468 0.271419 5.14852C0.0975759 5.32236 -8.79706e-05 5.55815 -8.79813e-05 5.804C-8.79921e-05 6.04985 0.0975759 6.28563 0.271419 6.45948C0.445264 6.63332 0.681047 6.73099 0.9269 6.73099L7.96274 6.73099L4.90368 9.78077C4.81679 9.86695 4.74783 9.96948 4.70077 10.0824C4.6537 10.1954 4.62947 10.3166 4.62947 10.4389C4.62947 10.5613 4.6537 10.6825 4.70077 10.7954C4.74783 10.9084 4.81679 11.0109 4.90368 11.0971C4.98985 11.184 5.09238 11.2529 5.20534 11.3C5.3183 11.3471 5.43946 11.3713 5.56184 11.3713C5.68421 11.3713 5.80537 11.3471 5.91833 11.3C6.0313 11.2529 6.13382 11.184 6.22 11.0971Z" fill="#EB6624"/>
</svg>
