<svg width="60" height="60" viewBox="0 0 60 60" fill="none" xmlns="http://www.w3.org/2000/svg">
<g clip-path="url(#clip0_1_2)">
<path d="M59.0146 29.5073C59.0146 13.2109 45.8037 0 29.5073 0C13.2109 0 0 13.2109 0 29.5073V29.5286C0 45.825 13.2109 59.0359 29.5073 59.0359C45.8037 59.0359 59.0146 45.825 59.0146 29.5286V29.5073Z" fill="#F6F6F7"/>
<path d="M30.5246 37.6696L37.6638 30.5305C37.7938 30.3947 37.8957 30.2346 37.9636 30.0593C38.1065 29.7117 38.1065 29.3218 37.9636 28.9741C37.8957 28.7989 37.7938 28.6387 37.6638 28.503L30.5246 21.3638C30.3915 21.2307 30.2335 21.1251 30.0595 21.053C29.8856 20.981 29.6991 20.9439 29.5109 20.9439C29.1306 20.9439 28.766 21.0949 28.4971 21.3638C28.2282 21.6327 28.0772 21.9973 28.0772 22.3776C28.0772 22.7578 28.2282 23.1224 28.4971 23.3913L33.209 28.0889H22.3717C21.993 28.0889 21.6299 28.2393 21.3621 28.5071C21.0943 28.7749 20.9439 29.138 20.9439 29.5167C20.9439 29.8954 21.0943 30.2586 21.3621 30.5263C21.6299 30.7941 21.993 30.9445 22.3717 30.9445H33.209L28.4971 35.6421C28.3633 35.7749 28.2571 35.9328 28.1846 36.1068C28.1121 36.2808 28.0748 36.4674 28.0748 36.6559C28.0748 36.8444 28.1121 37.031 28.1846 37.205C28.2571 37.379 28.3633 37.5369 28.4971 37.6696C28.6298 37.8035 28.7878 37.9097 28.9618 37.9822C29.1358 38.0547 29.3224 38.092 29.5109 38.092C29.6994 38.092 29.886 38.0547 30.06 37.9822C30.234 37.9097 30.3919 37.8035 30.5246 37.6696Z" fill="#18293E"/>
</g>
<defs>
<clipPath id="clip0_1_2">
<rect width="60" height="60" fill="white"/>
</clipPath>
</defs>
</svg>
